<?xml version="1.0" standalone="no"?>
<!DOCTYPE svg PUBLIC "-//W3C//DTD SVG 20010904//EN"
 "http://www.w3.org/TR/2001/REC-SVG-20010904/DTD/svg10.dtd">
<svg version="1.0" xmlns="http://www.w3.org/2000/svg"
 width="62.000000pt" height="80.000000pt" viewBox="0 0 62.000000 80.000000"
 preserveAspectRatio="xMidYMid meet">
<g transform="translate(0.000000,80.000000) scale(0.100000,-0.100000)"
fill="#000000" stroke="none">
<path d="M0 793 c0 -6 10 -24 23 -40 36 -44 67 -99 60 -106 -3 -4 -2 -7 4 -7
14 0 14 -2 20 -218 3 -149 2 -197 -8 -209 -11 -13 -10 -17 4 -28 14 -10 15
-14 5 -18 -7 -2 3 -4 22 -3 19 1 41 -3 49 -9 11 -7 13 -7 8 1 -4 6 3 20 15 30
12 11 18 13 14 6 -4 -6 -2 -12 3 -12 6 0 11 7 11 15 0 8 6 15 14 15 7 0 19 7
26 15 6 8 15 14 18 13 14 -3 42 15 36 23 -3 5 3 6 12 2 11 -4 15 -2 11 4 -4 6
0 14 9 17 8 3 12 2 9 -3 -3 -5 0 -13 6 -17 8 -5 9 -3 4 6 -6 10 -4 12 11 6 15
-6 16 -4 7 5 -9 9 -4 17 24 36 28 19 38 22 44 11 7 -10 9 -10 10 0 1 6 3 15 4
20 2 4 6 17 10 30 4 12 12 22 19 22 6 0 4 5 -4 10 -11 7 -11 10 -2 10 7 0 11
4 8 9 -3 4 5 8 17 7 12 -1 21 -8 19 -15 -1 -7 2 -10 8 -6 6 3 15 -4 20 -17
l11 -23 -5 24 c-6 29 9 15 19 -18 5 -17 4 -22 -5 -16 -8 5 -11 3 -8 -6 8 -25
-28 -52 -61 -46 -17 4 -33 2 -36 -3 -4 -6 1 -7 11 -3 12 4 15 3 10 -5 -5 -8
-1 -10 11 -6 14 5 15 4 4 -4 -8 -6 -21 -8 -29 -4 -9 3 -13 1 -9 -4 6 -10 -51
-51 -65 -46 -5 1 -8 -6 -8 -15 0 -15 -2 -14 -15 3 -15 18 -15 18 -8 0 5 -15 3
-17 -7 -11 -10 6 -12 4 -7 -8 4 -11 2 -14 -7 -11 -8 3 -17 0 -21 -5 -3 -6 -11
-8 -17 -5 -6 4 -8 2 -5 -3 7 -12 -19 -27 -43 -25 -10 1 -11 0 -2 -4 6 -3 9
-10 6 -16 -3 -5 -14 -2 -26 9 -20 18 -21 17 -11 -2 9 -17 5 -23 -25 -43 -20
-13 -30 -17 -23 -8 10 11 10 16 2 16 -6 0 -16 -10 -21 -22 -5 -13 -9 -19 -9
-15 -1 4 -17 -4 -36 -18 -42 -33 -63 -37 -93 -18 -29 18 -42 9 -20 -13 37 -37
74 -22 313 126 127 79 240 152 253 164 18 16 22 29 20 60 -3 36 -9 44 -63 83
-33 24 -76 52 -95 63 -19 11 -42 24 -50 30 -16 10 -229 140 -293 179 l-38 23
26 -38 c14 -21 28 -48 31 -61 4 -13 10 -23 15 -23 5 0 3 14 -6 30 -14 27 -14
30 0 30 10 0 13 -5 9 -12 -4 -6 -3 -8 4 -4 13 8 126 -57 162 -94 3 -3 12 -6
20 -8 8 -2 24 -12 36 -23 11 -10 29 -19 40 -19 16 0 17 -2 4 -11 -13 -9 -12
-10 2 -5 10 3 20 1 23 -5 4 -5 10 -7 15 -4 14 8 30 -29 30 -68 0 -51 -27 -78
-162 -158 -68 -40 -134 -81 -147 -91 -14 -10 -28 -15 -32 -11 -4 4 -9 107 -11
228 -3 208 -4 223 -27 267 -25 51 -100 141 -101 121z"/>
<path d="M146 595 c3 -16 6 -30 7 -31 1 -1 34 -21 72 -44 39 -24 99 -62 135
-85 98 -62 94 -60 78 -36 -7 12 -18 21 -25 21 -7 0 -13 4 -13 10 0 5 -3 9 -7
8 -16 -3 -43 15 -36 25 3 6 1 7 -6 3 -6 -4 -28 5 -49 21 -20 16 -49 35 -64 42
-15 8 -25 19 -21 24 3 6 2 7 -4 4 -13 -8 -52 20 -64 47 -8 17 -8 16 -3 -9z"/>
<path d="M80 601 c0 -6 4 -13 10 -16 6 -3 7 1 4 9 -7 18 -14 21 -14 7z"/>
<path d="M245 590 c-3 -6 1 -7 9 -4 18 7 21 14 7 14 -6 0 -13 -4 -16 -10z"/>
<path d="M331 236 c-18 -21 7 -33 25 -12 8 9 9 11 2 6 -19 -15 -32 -12 -18 5
7 8 10 15 7 15 -2 0 -10 -6 -16 -14z"/>
<path d="M439 183 c-13 -16 -12 -17 4 -4 16 13 21 21 13 21 -2 0 -10 -8 -17
-17z"/>
</g>
</svg>
