<svg width="128" height="21" viewBox="0 0 128 21" fill="none" xmlns="http://www.w3.org/2000/svg">
<path d="M0 19.9205H5.68363V12.7881H7.02095L11.0608 19.9205H17.0787L12.3145 11.6736C14.4041 10.8657 15.9086 9.27759 15.9086 6.43578V6.32434C15.9086 2.11734 13.011 -9.15527e-05 7.80106 -9.15527e-05H0V19.9205ZM5.68363 9.08257V4.29049H7.55031C9.38913 4.29049 10.3921 4.93129 10.3921 6.54722V6.65867C10.3921 8.2746 9.44485 9.08257 7.52245 9.08257H5.68363Z" fill="black"/>
<path d="M25.4057 20.2548C29.8077 20.2548 32.343 18.3881 32.7888 15.1005H28.1082C27.9132 16.0757 27.2166 16.8279 25.5728 16.8279C23.7897 16.8279 22.6753 15.7135 22.536 13.7911H32.7888V12.4816C32.7888 7.24375 29.3619 4.95915 25.3778 4.95915C20.9758 4.95915 17.4932 7.91241 17.4932 12.593V12.8159C17.4932 17.5801 20.8365 20.2548 25.4057 20.2548ZM22.5917 10.9771C22.8425 9.22187 23.8733 8.24674 25.3778 8.24674C26.9937 8.24674 27.8574 9.22187 27.941 10.9771H22.5917Z" fill="black"/>
<path d="M40.7721 20.2548C44.8119 20.2548 47.3751 18.6946 47.3751 15.2398C47.3751 12.1194 45.4248 11.0607 41.385 10.5592C39.6019 10.3363 38.9332 10.0577 38.9332 9.36118C38.9332 8.69251 39.4905 8.21888 40.577 8.21888C41.7193 8.21888 42.2487 8.69251 42.4437 9.66765H46.9572C46.6228 6.18503 44.1154 4.95915 40.5213 4.95915C37.1501 4.95915 34.2805 6.51936 34.2805 9.75123C34.2805 12.7881 35.9243 13.9304 39.8248 14.4319C41.8308 14.7105 42.5273 15.0448 42.5273 15.7413C42.5273 16.4657 41.9701 16.9393 40.7442 16.9393C39.3233 16.9393 38.8497 16.3543 38.6825 15.2956H34.0854C34.1969 18.5274 36.6208 20.2548 40.7721 20.2548Z" fill="black"/>
<path d="M55.1942 20.2548C56.3644 20.2548 57.3116 20.004 57.9524 19.8369V16.0478C57.5067 16.215 57.0888 16.2985 56.5315 16.2985C55.5843 16.2985 55.0549 15.8249 55.0549 14.7662V8.74824H57.9246V5.3492H55.0549V2.31236H50.0678V5.3492H48.3126V8.74824H50.0678V15.2398C50.0678 18.6667 51.9066 20.2548 55.1942 20.2548Z" fill="black"/>
<path d="M60.2279 19.9205H65.215V13.011C65.215 10.6706 66.8867 9.72337 69.9235 9.80695V5.15418C67.6668 5.12632 66.1344 6.07359 65.215 8.24674V5.3492H60.2279V19.9205Z" fill="black"/>
<path d="M79.1413 20.2548C83.5434 20.2548 86.0787 18.3881 86.5245 15.1005H81.8438C81.6488 16.0757 80.9523 16.8279 79.3085 16.8279C77.5254 16.8279 76.4109 15.7135 76.2716 13.7911H86.5245V12.4816C86.5245 7.24375 83.0976 4.95915 79.1135 4.95915C74.7114 4.95915 71.2288 7.91241 71.2288 12.593V12.8159C71.2288 17.5801 74.5721 20.2548 79.1413 20.2548ZM76.3274 10.9771C76.5781 9.22187 77.609 8.24674 79.1135 8.24674C80.7294 8.24674 81.5931 9.22187 81.6767 10.9771H76.3274Z" fill="black"/>
<path d="M92.8918 20.2548C95.2321 20.2548 96.5137 19.2797 97.2102 18.2209V19.9205H102.058V10.4756C102.058 6.60295 99.4948 4.95915 95.4828 4.95915C91.4987 4.95915 88.7405 6.68653 88.5176 10.197H93.1982C93.3097 9.27759 93.8112 8.46963 95.1764 8.46963C96.7644 8.46963 97.0988 9.38904 97.0988 10.7821V11.1164H95.7057C90.8579 11.1164 87.9604 12.4537 87.9604 15.8806C87.9604 18.9732 90.2728 20.2548 92.8918 20.2548ZM94.6191 16.8836C93.449 16.8836 92.8918 16.3543 92.8918 15.5184C92.8918 14.3204 93.7833 13.9304 95.7893 13.9304H97.0988V14.8219C97.0988 16.0757 96.0401 16.8836 94.6191 16.8836Z" fill="black"/>
<path d="M104.903 19.9205H109.89V11.4786C109.89 9.89053 110.782 9.02684 112.119 9.02684C113.262 9.02684 113.986 9.75123 113.986 11.2279V19.9205H118.917V11.4786C118.917 9.89053 119.809 9.02684 121.146 9.02684C122.289 9.02684 123.013 9.75123 123.013 11.2279V19.9205H128V10.392C128 6.74225 125.994 4.95915 123.236 4.95915C121.397 4.95915 119.67 5.68354 118.416 7.38305C117.719 5.79498 116.382 4.95915 114.46 4.95915C112.203 4.95915 110.671 6.18503 109.89 7.57808V5.3492H104.903V19.9205Z" fill="black"/>
</svg>
