<?xml version="1.0" standalone="no"?>
<!DOCTYPE svg PUBLIC "-//W3C//DTD SVG 20010904//EN"
 "http://www.w3.org/TR/2001/REC-SVG-20010904/DTD/svg10.dtd">
<svg version="1.0" xmlns="http://www.w3.org/2000/svg"
 width="128.000000pt" height="128.000000pt" viewBox="0 0 128.000000 128.000000"
 preserveAspectRatio="xMidYMid meet">
<g transform="translate(0.000000,128.000000) scale(0.100000,-0.100000)"
fill="#000000" stroke="none">
<path d="M853 1176 c-16 -8 -610 -554 -689 -634 -9 -9 -10 -20 -2 -45 5 -17
12 -40 15 -49 5 -18 53 -22 50 -5 -1 5 5 13 13 19 12 8 44 -3 130 -42 63 -29
121 -57 128 -62 13 -11 17 -67 5 -69 -5 0 -16 -2 -26 -4 -18 -3 -18 -3 -1 16
9 10 13 19 7 19 -19 0 -43 -36 -33 -48 7 -9 7 -9 -2 -2 -9 7 -28 -6 -70 -47
-32 -32 -58 -62 -58 -67 0 -6 5 -5 12 2 16 16 33 15 19 -1 -6 -8 -8 -17 -4
-20 3 -4 1 -7 -5 -7 -6 0 -14 -10 -18 -22 -7 -21 -9 -20 -14 11 -5 32 -10 36
-130 92 -69 32 -127 58 -130 58 -3 1 -5 -18 -5 -40 1 -40 2 -42 58 -71 32 -16
62 -26 67 -23 6 4 10 1 10 -6 0 -7 3 -10 6 -6 4 3 13 0 20 -8 8 -8 22 -11 32
-8 9 3 14 2 9 -2 -4 -5 7 -15 25 -22 36 -16 29 -22 180 144 l48 52 35 -14 c79
-34 66 -44 380 308 304 341 335 383 319 445 -12 47 -40 66 -159 106 -170 58
-199 65 -222 52z m90 -42 c4 -7 13 -11 21 -8 14 6 141 -39 165 -59 11 -9 13
-9 8 0 -6 9 -1 10 22 2 44 -15 53 -32 48 -86 -4 -43 -6 -48 -27 -45 -25 3 -40
-12 -39 -38 0 -8 4 -5 9 8 10 23 25 29 35 12 4 -6 2 -9 -3 -8 -6 2 -11 -1 -13
-7 -4 -12 -10 -20 -75 -90 -29 -30 -50 -55 -48 -55 2 0 -13 -17 -34 -37 -20
-21 -41 -37 -45 -35 -5 1 -6 -2 -3 -7 6 -10 -30 -56 -106 -135 -27 -27 -48
-53 -48 -58 0 -5 -4 -6 -10 -3 -5 3 -10 1 -10 -4 0 -6 -7 -11 -15 -11 -8 0
-15 -5 -15 -11 0 -5 4 -7 10 -4 6 3 7 -1 4 -10 -4 -9 -8 -14 -11 -11 -5 5 -88
-83 -88 -94 0 -5 -4 -12 -9 -17 -5 -5 -6 -3 -2 5 4 6 2 12 -3 12 -6 0 -11 -5
-11 -11 0 -6 -6 -17 -14 -25 -18 -18 -70 -38 -61 -24 4 6 -5 10 -19 10 -14 0
-26 5 -26 11 0 5 5 7 12 3 7 -5 8 -3 3 7 -14 22 -13 48 2 42 11 -4 11 -8 1
-22 -11 -14 -11 -14 3 -4 9 7 19 9 24 5 4 -4 3 1 -2 11 -8 16 -280 149 -323
159 -8 2 -21 9 -28 16 -7 6 -21 12 -29 12 -9 0 -13 3 -9 7 9 9 46 12 41 3 -5
-7 72 -40 89 -39 5 0 12 -3 15 -8 7 -10 226 -113 240 -113 5 0 11 -5 13 -11 2
-7 10 -4 18 7 11 13 12 16 1 10 -7 -5 -16 -4 -20 1 -6 10 -62 36 -99 48 -12 3
-19 11 -16 17 4 6 -1 8 -16 3 -17 -5 -21 -4 -15 6 6 9 4 11 -8 6 -9 -3 -19 -2
-22 4 -4 5 -10 7 -14 4 -5 -2 -19 4 -31 15 -13 11 -32 20 -44 20 -18 0 -19 2
-6 11 13 9 13 10 -1 6 -9 -3 -30 3 -48 14 -30 18 -41 39 -20 39 5 0 7 6 3 13
-4 6 -4 9 1 5 4 -4 23 6 42 22 18 17 38 30 43 30 6 0 10 6 10 14 0 8 7 17 16
20 15 6 15 4 3 -11 -7 -10 -9 -15 -5 -11 5 4 16 2 25 -5 14 -11 14 -10 2 6 -7
9 -10 17 -6 17 4 0 1 8 -6 18 -7 9 -10 14 -5 10 11 -9 35 14 28 27 -3 6 -2 7
3 3 11 -11 47 11 39 24 -4 7 -3 8 4 4 7 -4 12 -1 12 7 0 8 23 34 52 58 56 47
199 179 209 192 3 4 14 5 25 1 16 -5 16 -4 4 5 -13 10 -11 14 10 30 13 11 29
17 34 14 5 -3 6 -2 3 4 -3 5 10 25 30 44 20 19 33 29 29 22 -3 -6 -1 -15 6
-19 7 -4 10 -4 6 1 -4 4 -3 14 4 22 13 17 69 8 81 -13z m-721 -638 c13 -18 9
-23 -14 -22 -14 1 -22 8 -23 23 -1 15 3 19 14 15 9 -3 19 -10 23 -16z m202
-277 c-31 -33 -31 -32 -39 -19 -3 5 8 16 25 25 18 9 28 21 24 27 -5 7 -3 8 5
3 9 -5 5 -15 -15 -36z m-236 -44 c81 -36 112 -55 112 -68 0 -15 -8 -13 -61 14
-34 16 -68 28 -76 25 -9 -4 -11 -2 -7 6 5 8 2 9 -10 5 -11 -5 -15 -3 -10 5 5
8 2 9 -10 5 -9 -4 -15 -3 -12 2 3 5 -8 14 -24 21 -17 7 -30 19 -30 27 0 8 4
13 8 11 5 -1 59 -25 120 -53z"/>
<path d="M766 1048 c3 -5 10 -6 15 -3 13 9 11 12 -6 12 -8 0 -12 -4 -9 -9z"/>
<path d="M703 996 c-4 -7 -13 -15 -20 -17 -14 -5 -209 -195 -228 -222 -12 -17
-10 -23 14 -48 16 -16 37 -29 47 -29 16 0 17 -2 4 -11 -13 -9 -13 -10 1 -6 16
5 71 -10 97 -26 6 -5 16 -6 20 -3 4 2 14 0 22 -6 12 -8 11 -8 -5 -3 -12 4 -16
3 -10 -3 19 -17 74 -31 81 -21 3 6 15 9 25 6 12 -3 17 -1 12 6 -4 6 0 8 10 4
11 -4 14 -2 11 7 -3 8 0 17 7 22 8 5 10 3 4 -6 -5 -9 -4 -11 3 -6 7 4 12 14
12 23 0 9 6 13 14 10 10 -4 13 -1 10 7 -3 8 8 23 25 36 17 12 31 29 31 38 0
15 2 15 11 2 9 -13 10 -13 7 0 -2 8 0 15 4 15 3 0 15 9 27 19 20 18 29 56 14
56 -4 0 -47 -42 -95 -92 -78 -84 -87 -90 -88 -66 0 19 -7 29 -27 37 -16 6 -64
26 -108 45 -44 19 -82 32 -84 30 -7 -7 3 -12 104 -53 97 -39 100 -41 100 -72
0 -56 -20 -57 -147 -4 -64 27 -124 54 -133 62 -22 16 -24 14 117 145 l109 102
37 -14 c132 -47 196 -75 213 -94 l20 -21 -3 34 c-3 35 -4 35 -128 83 -69 26
-126 48 -127 48 -1 0 -6 -6 -10 -14z m242 -195 c-3 -6 -11 -11 -16 -11 -5 0
-4 6 3 14 14 16 24 13 13 -3z"/>
<path d="M1097 869 c-10 -11 -15 -24 -12 -27 4 -4 13 2 22 13 8 11 19 19 24
17 6 -1 8 2 4 8 -9 15 -19 12 -38 -11z"/>
<path d="M1031 803 c-1 -17 16 -25 25 -12 4 7 3 9 -4 5 -5 -3 -13 0 -15 6 -4
9 -6 10 -6 1z"/>
<path d="M1010 769 c0 -5 5 -7 10 -4 6 3 10 8 10 11 0 2 -4 4 -10 4 -5 0 -10
-5 -10 -11z"/>
<path d="M520 754 l-25 -13 33 -12 c17 -6 30 -14 28 -17 -2 -4 6 -8 17 -9 37
-2 62 -8 67 -14 13 -15 100 -47 106 -38 3 5 2 9 -3 8 -21 -4 -24 2 -12 19 12
15 12 16 -2 4 -13 -10 -23 -10 -49 2 -22 9 -28 15 -19 19 8 3 -1 4 -19 1 -19
-2 -31 -1 -28 4 3 5 -1 9 -8 9 -8 0 -28 5 -45 13 -25 10 -29 15 -20 26 14 16
12 16 -21 -2z"/>
<path d="M980 733 c0 -23 -2 -25 -11 -13 -7 10 -9 11 -7 2 2 -8 8 -13 13 -13
13 2 26 51 14 51 -5 0 -9 -12 -9 -27z"/>
<path d="M915 680 c-10 -11 -14 -20 -9 -20 5 0 17 9 27 20 9 11 13 20 8 20 -4
0 -16 -9 -26 -20z"/>
<path d="M861 624 c-13 -13 -18 -24 -13 -24 6 0 14 5 17 10 12 19 26 10 20
-12 -6 -22 -5 -22 6 -3 7 11 16 22 20 25 5 3 0 11 -9 17 -15 9 -23 6 -41 -13z"/>
<path d="M303 607 c0 -7 -2 -18 -4 -26 -2 -7 2 -15 9 -16 7 -2 8 -1 2 2 -6 3
-7 11 0 23 6 10 6 21 2 24 -5 3 -9 0 -9 -7z"/>
<path d="M815 581 c-3 -5 -1 -12 5 -16 5 -3 10 -11 10 -18 0 -8 -3 -8 -12 1
-17 17 -28 15 -28 -5 0 -14 2 -15 9 -4 7 11 10 11 17 -1 8 -13 12 -12 29 4 14
14 16 19 5 16 -9 -2 -14 4 -14 15 2 18 -11 23 -21 8z"/>
<path d="M750 505 c-7 -9 -10 -18 -7 -21 3 -3 10 4 17 15 13 25 8 27 -10 6z"/>
<path d="M725 455 c0 -13 3 -21 8 -18 4 2 7 10 7 18 0 8 -3 16 -7 18 -5 3 -8
-5 -8 -18z"/>
<path d="M649 386 c-13 -25 -14 -33 -4 -33 8 0 11 7 7 16 -5 14 -3 14 10 3 11
-9 18 -10 23 -2 4 6 1 9 -7 8 -8 -2 -12 5 -10 20 4 30 0 28 -19 -12z"/>
<path d="M610 367 c-17 -27 -19 -76 -3 -70 6 2 13 13 16 24 3 10 1 17 -4 13
-12 -7 -11 3 2 28 15 28 6 32 -11 5z"/>
<path d="M1244 1092 c4 -3 14 -7 22 -8 9 -1 13 0 10 4 -4 3 -14 7 -22 8 -9 1
-13 0 -10 -4z"/>
<path d="M885 501 c-3 -5 -2 -12 3 -15 5 -3 9 1 9 9 0 17 -3 19 -12 6z"/>
<path d="M125 350 c-44 -44 -63 -70 -53 -70 9 0 21 8 27 18 5 9 12 16 15 15 3
-2 5 -2 4 0 -8 8 67 87 78 83 8 -3 11 0 7 10 -3 7 -6 14 -7 14 -1 0 -33 -31
-71 -70z"/>
<path d="M174 359 c-19 -21 -20 -20 18 -36 22 -10 29 -9 44 8 19 21 20 20 -18
36 -22 10 -29 9 -44 -8z"/>
<path d="M416 329 c-11 -11 -16 -22 -13 -26 4 -3 16 3 27 15 25 26 12 36 -14
11z"/>
<path d="M304 299 c-19 -21 -20 -20 18 -36 22 -10 29 -9 44 8 19 21 20 20 -18
36 -22 10 -29 9 -44 -8z"/>
<path d="M253 265 c0 -8 4 -12 9 -9 5 3 6 10 3 15 -9 13 -12 11 -12 -6z"/>
<path d="M311 219 c-30 -33 -26 -44 6 -15 15 14 24 28 21 31 -3 4 -15 -4 -27
-16z"/>
</g>
</svg>
